<?xml version="1.0" standalone="no"?>
<!DOCTYPE svg PUBLIC "-//W3C//DTD SVG 20010904//EN"
 "http://www.w3.org/TR/2001/REC-SVG-20010904/DTD/svg10.dtd">
<svg version="1.0" xmlns="http://www.w3.org/2000/svg"
 width="563.000000pt" height="136.000000pt" viewBox="0 0 563.000000 136.000000"
 preserveAspectRatio="xMidYMid meet">

<g transform="translate(0.000000,136.000000) scale(0.100000,-0.100000)"
fill="#000000" stroke="none">
<path d="M205 1334 c-89 -59 -151 -140 -186 -241 -25 -73 -24 -126 2 -181 34
-69 132 -128 154 -92 4 6 -4 27 -17 48 -20 32 -23 50 -23 132 1 83 4 103 29
157 15 33 41 74 57 89 l29 28 0 -360 c0 -347 -5 -420 -36 -556 -6 -25 -4 -28
19 -28 31 0 80 40 112 90 38 61 45 132 45 487 l0 333 37 -20 c56 -30 119 -26
176 10 43 27 70 71 53 87 -3 3 -30 0 -60 -7 -47 -11 -63 -10 -127 5 -41 10
-88 24 -106 32 -53 21 -113 17 -158 -13z"/>
<path d="M985 1061 c-65 -16 -119 -61 -155 -132 -27 -53 -51 -164 -48 -229 2
-62 -18 -109 -62 -142 -30 -22 -55 -16 -65 15 -4 12 -9 117 -12 234 -4 163 -8
215 -19 224 -8 6 -37 12 -66 13 l-53 1 0 -220 c1 -210 2 -223 25 -280 54 -129
166 -140 242 -24 17 27 34 49 38 49 3 0 21 -21 38 -46 43 -60 103 -88 181 -82
114 8 195 102 224 260 11 62 16 70 55 99 l42 31 0 -69 c0 -151 72 -279 176
-313 50 -17 150 -8 200 18 23 12 61 44 86 71 l45 50 7 -62 c7 -75 20 -87 93
-87 61 0 57 -10 72 154 11 106 38 216 65 265 13 23 14 15 21 -85 11 -196 32
-262 86 -284 27 -12 36 -11 58 1 23 13 27 23 33 89 7 82 25 164 56 250 l19 55
5 -145 c6 -169 17 -211 68 -262 32 -33 44 -38 83 -38 38 0 51 5 77 32 18 18
37 45 42 60 6 15 13 28 16 28 4 -1 19 -18 33 -39 73 -105 246 -108 325 -5 51
66 76 139 80 232 4 94 -1 89 138 182 86 58 90 55 52 -32 -13 -29 -32 -93 -42
-141 -16 -75 -16 -93 -5 -139 39 -156 148 -222 247 -149 56 41 77 66 128 156
44 77 46 79 46 44 0 -27 -24 -77 -106 -215 -148 -250 -147 -247 -147 -311 0
-92 51 -137 154 -136 103 1 169 53 205 161 16 49 19 90 20 283 l1 227 41 73
c23 41 55 90 71 109 l30 35 1 -140 c1 -231 43 -315 158 -315 39 0 98 33 131
74 13 15 15 14 32 -13 23 -39 67 -61 119 -61 54 0 97 20 142 64 33 35 37 36
43 17 3 -11 22 -34 41 -50 28 -25 44 -31 80 -31 39 0 51 5 79 33 l33 33 26
-33 c22 -27 34 -33 67 -33 104 0 151 78 196 325 6 35 8 26 16 -60 13 -160 24
-201 58 -230 33 -27 59 -31 90 -15 14 8 19 21 19 53 0 54 33 224 58 302 l20
60 1 -107 c2 -220 53 -328 155 -328 56 0 86 18 113 65 17 30 23 56 23 102 0
94 -25 95 -54 3 -28 -87 -51 -102 -83 -53 -15 23 -19 58 -23 237 l-5 209 -27
20 c-19 14 -44 21 -75 21 -48 1 -48 1 -71 -47 -13 -27 -35 -98 -51 -159 l-28
-112 -6 55 c-4 30 -7 90 -7 134 0 50 -6 87 -14 97 -28 38 -118 51 -135 21 -5
-10 -16 -54 -25 -98 -39 -190 -49 -233 -67 -292 -46 -157 -72 -159 -134 -13
-17 40 -33 34 -58 -22 -44 -96 -82 -104 -104 -23 -10 37 -13 100 -10 234 3
168 2 186 -15 203 -25 25 -103 25 -117 1 -6 -10 -11 -13 -11 -8 0 26 -77 51
-141 47 -44 -3 -113 -73 -137 -139 -31 -86 -45 -179 -37 -258 6 -68 5 -72 -22
-99 -44 -44 -58 -48 -79 -25 -17 19 -20 44 -24 251 -5 227 -5 230 -29 249 -28
23 -38 23 -83 5 -43 -18 -96 -76 -134 -146 l-29 -54 -3 70 c-3 107 -5 111 -59
122 -62 14 -79 3 -87 -53 -9 -59 -50 -218 -70 -275 -25 -66 -61 -123 -101
-158 -41 -37 -56 -34 -78 14 -28 57 -22 152 18 289 41 142 43 168 13 189 -53
38 -171 10 -264 -60 -37 -29 -54 -30 -54 -5 0 21 -19 31 -60 31 -15 0 -48 12
-74 26 -55 31 -145 36 -192 11 -96 -50 -152 -164 -157 -322 -3 -99 -32 -179
-70 -191 -45 -14 -56 41 -57 273 l0 181 -30 26 c-33 27 -86 42 -118 31 -22 -6
-68 -115 -92 -212 -6 -29 -16 -53 -21 -53 -5 0 -9 47 -9 104 0 96 -2 107 -24
132 -19 23 -32 28 -71 28 -44 1 -50 -2 -68 -32 -10 -18 -30 -63 -43 -100 l-24
-67 0 86 c0 60 -4 90 -14 98 -22 18 -100 25 -113 10 -7 -9 -13 -75 -15 -169
-4 -172 -12 -200 -80 -269 -73 -75 -156 -81 -226 -18 -28 26 -62 133 -62 196
0 77 25 163 55 188 34 29 51 29 71 -2 17 -26 13 -75 -6 -75 -6 0 -10 -11 -10
-24 0 -17 9 -28 34 -40 42 -20 50 -20 86 -1 36 19 55 70 40 110 -30 80 -100
128 -185 128 -63 0 -85 -11 -160 -83 -69 -65 -117 -94 -146 -85 -10 4 -37 33
-59 66 -56 82 -141 119 -225 100z m82 -93 c38 -43 48 -87 47 -208 0 -104 -3
-120 -28 -172 -36 -76 -67 -87 -107 -38 -39 46 -53 115 -46 231 6 109 30 178
70 197 33 16 41 14 64 -10z m1846 -8 c38 -45 54 -149 39 -262 -13 -104 -37
-159 -77 -173 -24 -8 -30 -6 -51 20 -37 46 -54 110 -54 199 0 104 24 189 62
221 38 32 51 31 81 -5z m1569 -27 c66 -74 36 -347 -43 -396 -23 -15 -64 -1
-76 26 -26 57 -34 135 -23 217 17 126 42 170 95 170 18 0 39 -8 47 -17z m-815
-618 c-8 -186 -31 -245 -96 -245 -58 0 -76 50 -45 126 40 99 139 285 143 268
2 -11 1 -77 -2 -149z"/>
</g>
</svg>
